<svg version="1.1" id="FOLDER" xmlns="http://www.w3.org/2000/svg" xmlns:xlink="http://www.w3.org/1999/xlink" x="0px" y="0px"
	 width="1800px" height="1800px" viewBox="0 0 1800 1800" enable-background="new 0 0 1800 1800" xml:space="preserve">
<path fill="#6f42c1" d="M1759.255,188.518H938.75L757.06,18.2c-5.796-5.437-13.448-8.461-21.396-8.461H40.745
	c-17.28,0-31.287,14.006-31.287,31.286v410.815v1315.872c0,17.284,14.006,31.287,31.287,31.287h1718.51
	c17.28,0,31.287-14.003,31.287-31.287V451.841V219.804C1790.542,202.524,1776.535,188.518,1759.255,188.518z M72.031,72.312h651.264
	l181.689,170.32c5.797,5.434,13.448,8.459,21.396,8.459h801.588v169.464H72.031V72.312z M1727.969,1736.427H72.031V483.127h1655.938
	V1736.427z"/>
<g>
</g>
<g>
</g>
<g>
</g>
<g>
</g>
<g>
</g>
<g>
</g>
</svg>
