<?xml version="1.0" encoding="UTF-8" standalone="no"?>
<svg
   xmlns:dc="http://purl.org/dc/elements/1.1/"
   xmlns:cc="http://creativecommons.org/ns#"
   xmlns:rdf="http://www.w3.org/1999/02/22-rdf-syntax-ns#"
   xmlns:svg="http://www.w3.org/2000/svg"
   xmlns="http://www.w3.org/2000/svg"
   xmlns:sodipodi="http://sodipodi.sourceforge.net/DTD/sodipodi-0.dtd"
   xmlns:inkscape="http://www.inkscape.org/namespaces/inkscape"
   enable-background="new 0 0 128 128"
   height="128px"
   id="Layer_1"
   version="1.1"
   viewBox="0 0 128 128"
   width="128px"
   xml:space="preserve"
   sodipodi:docname="ic-coffee-cup.svg"
   inkscape:version="0.92.1 r15371"><metadata
     id="metadata21"><rdf:RDF><cc:Work
         rdf:about=""><dc:format>image/svg+xml</dc:format><dc:type
           rdf:resource="http://purl.org/dc/dcmitype/StillImage" /></cc:Work></rdf:RDF></metadata><defs
     id="defs19" /><sodipodi:namedview
     pagecolor="#ffffff"
     bordercolor="#666666"
     borderopacity="1"
     objecttolerance="10"
     gridtolerance="10"
     guidetolerance="10"
     inkscape:pageopacity="0"
     inkscape:pageshadow="2"
     inkscape:window-width="640"
     inkscape:window-height="480"
     id="namedview17"
     showgrid="false"
     inkscape:zoom="1.84375"
     inkscape:cx="64"
     inkscape:cy="64"
     inkscape:window-x="0"
     inkscape:window-y="0"
     inkscape:window-maximized="0"
     inkscape:current-layer="Layer_1" /><g
     id="g8"
     transform="matrix(1.3096398,0,0,1.1737574,-19.828716,-11.131073)"><path
       d="m 40.854,33.522 c -1.104,0 -2,-0.896 -2,-2 V 16.118 c 0,-1.104 0.896,-2 2,-2 1.104,0 2,0.896 2,2 v 15.404 c 0,1.105 -0.895,2 -2,2 z"
       id="path2"
       inkscape:connector-curvature="0"
       style="fill:#6f42c1" /><path
       d="m 52.63,33.522 c -1.104,0 -2,-0.896 -2,-2 V 16.118 c 0,-1.104 0.896,-2 2,-2 1.104,0 2,0.896 2,2 v 15.404 c 0,1.105 -0.896,2 -2,2 z"
       id="path4"
       inkscape:connector-curvature="0"
       style="fill:#6f42c1" /><path
       d="m 64.686,33.522 c -1.104,0 -2,-0.896 -2,-2 V 16.118 c 0,-1.104 0.896,-2 2,-2 1.104,0 2,0.896 2,2 v 15.404 c 0,1.105 -0.896,2 -2,2 z"
       id="path6"
       inkscape:connector-curvature="0"
       style="fill:#6f42c1" /></g><path
     d="M 86.959316,122.68197 H 11.601331 c -1.445843,0 -2.6192802,-1.05169 -2.6192802,-2.34752 0,-1.29583 1.1734372,-2.34751 2.6192802,-2.34751 h 75.357985 c 1.445843,0 2.61928,1.05168 2.61928,2.34751 0,1.29583 -1.172128,2.34752 -2.61928,2.34752 z"
     id="path10"
     inkscape:connector-curvature="0"
     style="fill:#6f42c1;stroke-width:1.23983848" /><path
     d="m 96.028572,87.594836 h -8.18001 v -4.69503 h 8.18001 c 9.830158,0 17.826818,-7.16931 17.826818,-15.98188 0,-8.811397 -7.99666,-15.980708 -17.826818,-15.980708 h -8.18001 v -4.695029 h 8.18001 c 12.719218,0 23.065378,9.275031 23.065378,20.675737 0,11.401879 -10.34616,20.67691 -23.065378,20.67691 z"
     id="path12"
     inkscape:connector-curvature="0"
     style="fill:#6f42c1;stroke-width:1.23983848" /><path
     d="m 49.280978,114.40111 c -22.220659,0 -40.2989272,-16.203723 -40.2989272,-36.118865 V 34.401324 H 89.578596 v 43.880921 c 0,19.916315 -18.078268,36.118865 -40.297618,36.118865 z M 14.22061,39.096354 v 39.185891 c 0,17.32818 15.727465,31.423835 35.060368,31.423835 19.332904,0 35.059059,-14.096828 35.059059,-31.423835 V 39.096354 Z"
     id="path14"
     inkscape:connector-curvature="0"
     style="fill:#6f42c1;stroke-width:1.23983848" /></svg>