<svg
   xmlns="http://www.w3.org/2000/svg"
   xmlns:xlink="http://www.w3.org/1999/xlink"
   width="64"
   height="64"
   x="0px"
   y="0px"
   style="enable-background:new 0 0 64 64;"
   version="1.1"
   viewBox="0 0 64 64"
   xml:space="preserve"
   id="svg34"
   ><style>
   .st0{fill:#6f42c1;}
   </style>
   <g
     id="g32"
     transform="matrix(1.3076903,0,0,1.3076903,-9.8768561,-9.8307022)"><g
       id="Icon-Calendar"
       transform="translate(30,478)"><path
         class="st0"
         d="m 20.645048,-422.68324 h -37.30204 c -2.543321,0 -4.662755,-2.11943 -4.662755,-4.66275 v -34.22886 c 0,-2.54333 1.695548,-4.66276 3.920953,-4.66276 h 3.368269 v 2.08406 h -3.368269 c -0.83985,0 -1.931837,1.62495 -1.931837,2.5787 v 34.22886 c 0,1.28769 1.698744,2.65222 2.779611,2.65222 h 37.30204 c 0.847774,0 2.779611,-1.16591 2.779611,-2.65222 v -34.22886 c 0,-1.22845 -1.149859,-2.52997 -1.931837,-2.50538 h -3.575646 v -2.15738 h 3.575646 c 2.119434,0 3.920953,2.11943 3.920953,4.66276 v 34.22886 c -0.211944,2.54332 -2.331378,4.66275 -4.874699,4.66275"
         id="Fill-133"
         style="fill:#6f42c1;stroke-width:1.05971706"
          /><path
         class="st0"
         d="m -10.404661,-459.98528 c -0.634762,0 -1.128475,-0.7418 -1.128475,-1.58957 v -6.25234 c 0,-0.84777 0.493713,-1.58957 1.128475,-1.58957 0.6347622,0 1.1284748,0.7418 1.1284748,1.58957 v 6.25234 c -0.079346,0.84777 -0.4937126,1.58957 -1.1284748,1.58957"
         id="Fill-134"
         style="fill:#6f42c1;stroke-width:0.91697079"
          /><path
         class="st0"
         d="m 14.392718,-459.98528 c -0.633493,0 -1.105691,-0.7418 -1.105691,-1.58957 v -6.25234 c 0,-0.84777 0.472198,-1.58957 1.105691,-1.58957 0.633492,0 1.10569,0.7418 1.10569,1.58957 v 6.25234 c 0,0.84777 -0.472198,1.58957 -1.10569,1.58957"
         id="Fill-135"
         style="fill:#6f42c1;stroke-width:0.91605294"
          /><polygon
         class="st0"
         id="Fill-136"
         points="-5.3,-462.1 -5.3,-465.1 9.3,-465.1 9.3,-462.1 "
         style="fill:#6f42c1"
         transform="matrix(1.2336113,0,0,0.73581442,-0.47319436,-123.88671)" /><polygon
         class="st0"
         id="Fill-137"
         points="21.1,-456.3 21.1,-453.3 -17.1,-453.3 -17.1,-456.3 "
         style="fill:#6f42c1"
         transform="matrix(1.1623888,0,0,0.64631447,-0.11735917,-161.59866)" /><polygon
         class="st0"
         id="Fill-138"
         points="15.2,-447.5 15.2,-450.4 18.1,-450.4 18.1,-447.5 "
         style="fill:#6f42c1"
         transform="matrix(1.059717,0,0,1.059717,-0.12540579,26.636788)" /><polygon
         class="st0"
         id="Fill-139"
         points="9.3,-447.5 9.3,-450.4 12.3,-450.4 12.3,-447.5 "
         style="fill:#6f42c1"
         transform="matrix(1.059717,0,0,1.059717,-0.12540579,26.636788)" /><polygon
         class="st0"
         id="Fill-140"
         points="3.5,-447.5 3.5,-450.4 6.4,-450.4 6.4,-447.5 "
         style="fill:#6f42c1"
         transform="matrix(1.059717,0,0,1.059717,-0.12540579,26.636788)" /><polygon
         class="st0"
         id="Fill-141"
         points="-2.4,-447.5 -2.4,-450.4 0.5,-450.4 0.5,-447.5 "
         style="fill:#6f42c1"
         transform="matrix(1.059717,0,0,1.059717,-0.12540579,26.636788)" /><polygon
         class="st0"
         id="Fill-142"
         points="-8.3,-447.5 -8.3,-450.4 -5.3,-450.4 -5.3,-447.5 "
         style="fill:#6f42c1"
         transform="matrix(1.059717,0,0,1.059717,-0.12540579,26.636788)" /><polygon
         class="st0"
         id="Fill-143"
         points="15.2,-441.6 15.2,-444.5 18.1,-444.5 18.1,-441.6 "
         style="fill:#6f42c1"
         transform="matrix(1.059717,0,0,1.059717,-0.12540579,26.636788)" /><polygon
         class="st0"
         id="Fill-144"
         points="9.3,-441.6 9.3,-444.5 12.3,-444.5 12.3,-441.6 "
         style="fill:#6f42c1"
         transform="matrix(1.059717,0,0,1.059717,-0.12540579,26.636788)" /><polygon
         class="st0"
         id="Fill-145"
         points="3.5,-441.6 3.5,-444.5 6.4,-444.5 6.4,-441.6 "
         style="fill:#6f42c1"
         transform="matrix(1.059717,0,0,1.059717,-0.12540579,26.636788)" /><polygon
         class="st0"
         id="Fill-146"
         points="-2.4,-441.6 -2.4,-444.5 0.5,-444.5 0.5,-441.6 "
         style="fill:#6f42c1"
         transform="matrix(1.059717,0,0,1.059717,-0.12540579,26.636788)" /><polygon
         class="st0"
         id="Fill-147"
         points="-8.3,-441.6 -8.3,-444.5 -5.3,-444.5 -5.3,-441.6 "
         style="fill:#6f42c1"
         transform="matrix(1.059717,0,0,1.059717,-0.12540579,26.636788)" /><polygon
         class="st0"
         id="Fill-148"
         points="-14.1,-441.6 -14.1,-444.5 -11.2,-444.5 -11.2,-441.6 "
         style="fill:#6f42c1"
         transform="matrix(1.059717,0,0,1.059717,-0.12540579,26.636788)" /><polygon
         class="st0"
         id="Fill-149"
         points="15.2,-435.7 15.2,-438.7 18.1,-438.7 18.1,-435.7 "
         style="fill:#6f42c1"
         transform="matrix(1.059717,0,0,1.059717,-0.12540579,26.636788)" /><polygon
         class="st0"
         id="Fill-150"
         points="9.3,-435.7 9.3,-438.7 12.3,-438.7 12.3,-435.7 "
         style="fill:#6f42c1"
         transform="matrix(1.059717,0,0,1.059717,-0.12540579,26.636788)" /><polygon
         class="st0"
         id="Fill-151"
         points="3.5,-435.7 3.5,-438.7 6.4,-438.7 6.4,-435.7 "
         style="fill:#6f42c1"
         transform="matrix(1.059717,0,0,1.059717,-0.12540579,26.636788)" /><polygon
         class="st0"
         id="Fill-152"
         points="-2.4,-435.7 -2.4,-438.7 0.5,-438.7 0.5,-435.7 "
         style="fill:#6f42c1"
         transform="matrix(1.059717,0,0,1.059717,-0.12540579,26.636788)" /><polygon
         class="st0"
         id="Fill-153"
         points="-8.3,-435.7 -8.3,-438.7 -5.3,-438.7 -5.3,-435.7 "
         style="fill:#6f42c1"
         transform="matrix(1.059717,0,0,1.059717,-0.12540579,26.636788)" /><polygon
         class="st0"
         id="Fill-154"
         points="-14.1,-435.7 -14.1,-438.7 -11.2,-438.7 -11.2,-435.7 "
         style="fill:#6f42c1"
         transform="matrix(1.059717,0,0,1.059717,-0.12540579,26.636788)" /><polygon
         class="st0"
         id="Fill-155"
         points="9.3,-429.9 9.3,-432.8 12.3,-432.8 12.3,-429.9 "
         style="fill:#6f42c1"
         transform="matrix(1.059717,0,0,1.059717,-0.12540579,26.636788)" /><polygon
         class="st0"
         id="Fill-156"
         points="3.5,-429.9 3.5,-432.8 6.4,-432.8 6.4,-429.9 "
         style="fill:#6f42c1"
         transform="matrix(1.059717,0,0,1.059717,-0.12540579,26.636788)" /><polygon
         class="st0"
         id="Fill-157"
         points="-2.4,-429.9 -2.4,-432.8 0.5,-432.8 0.5,-429.9 "
         style="fill:#6f42c1"
         transform="matrix(1.059717,0,0,1.059717,-0.12540579,26.636788)" /><polygon
         class="st0"
         id="Fill-158"
         points="-8.3,-429.9 -8.3,-432.8 -5.3,-432.8 -5.3,-429.9 "
         style="fill:#6f42c1"
         transform="matrix(1.059717,0,0,1.059717,-0.12540579,26.636788)" /><polygon
         class="st0"
         id="Fill-159"
         points="-14.1,-429.9 -14.1,-432.8 -11.2,-432.8 -11.2,-429.9 "
         style="fill:#6f42c1"
         transform="matrix(1.059717,0,0,1.059717,-0.12540579,26.636788)" /></g></g></svg>