<?xml version="1.0" ?><!DOCTYPE svg  PUBLIC '-//W3C//DTD SVG 1.1//EN'  'http://www.w3.org/Graphics/SVG/1.1/DTD/svg11.dtd'><svg enable-background="new 0 0 100 100" height="100px" id="Layer_1" version="1.1" viewBox="0 0 100 100" width="100px" xml:space="preserve" xmlns="http://www.w3.org/2000/svg" xmlns:xlink="http://www.w3.org/1999/xlink"><g><circle cx="50" cy="50" fill="#e4405f" r="45"/><path d="M63.202,32.681H36.8c-2.274,0-4.118,1.839-4.118,4.108V63.21   c0,2.27,1.844,4.108,4.118,4.108h26.402c2.273,0,4.116-1.838,4.116-4.108V36.789C67.318,34.521,65.476,32.681,63.202,32.681z    M57.577,38.094c0-0.598,0.485-1.083,1.083-1.083h3.247c0.598,0,1.083,0.485,1.083,1.083v3.247c0,0.597-0.485,1.083-1.083,1.083   H58.66c-0.598,0-1.083-0.485-1.083-1.083V38.094z M50.04,43.396c3.679,0,6.661,2.975,6.661,6.645c0,3.67-2.982,6.646-6.661,6.646   c-3.678,0-6.659-2.976-6.659-6.646C43.381,46.37,46.362,43.396,50.04,43.396z M64.072,62.989c0,0.597-0.486,1.083-1.082,1.083   H37.012c-0.598,0-1.083-0.485-1.083-1.083V46.753h4.33c-0.564,0.812-0.754,2.326-0.754,3.287c0,5.796,4.726,10.513,10.535,10.513   c5.812,0,10.537-4.716,10.537-10.513c0-0.961-0.136-2.453-0.835-3.287h4.33V62.989z" fill="#FFFFFF" id="Instagram_1_"/></g></svg>