<?xml version="1.0" encoding="UTF-8" standalone="no"?>
<svg
   xmlns:svg="http://www.w3.org/2000/svg"
   xmlns="http://www.w3.org/2000/svg"
   enable-background="new 0 0 33 25"
   height="25px"
   version="1.1"
   viewBox="0 0 33 25"
   width="33px"
   xml:space="preserve"
   ><g
     id="g21"><path
       d="m 15.353,18.472 c 0,1.973 -0.662,3.554 -1.988,4.743 C 12.039,24.405 10.388,25 8.418,25 5.901,25 3.93,24.201 2.502,22.603 1.074,21.006 0.359,18.88 0.359,16.228 0.359,13.509 0.783,11.196 1.634,9.292 2.484,7.389 3.503,5.809 4.695,4.549 5.883,3.291 7.125,2.305 8.418,1.591 9.709,0.877 10.831,0.352 11.783,0.01 l 3.265,5.508 c -1.36,0.545 -2.517,1.412 -3.468,2.602 -0.953,1.19 -1.496,2.465 -1.633,3.824 1.359,0 2.602,0.597 3.724,1.786 1.122,1.19 1.682,2.771 1.682,4.742 z m 17.647,0 c 0,1.973 -0.663,3.554 -1.989,4.743 C 29.685,24.406 28.035,25 26.064,25 c -2.518,0 -4.488,-0.799 -5.916,-2.397 -1.429,-1.597 -2.143,-3.723 -2.143,-6.375 0,-2.719 0.424,-5.032 1.275,-6.936 0.85,-1.903 1.869,-3.483 3.06,-4.743 1.188,-1.258 2.431,-2.244 3.724,-2.958 1.291,-0.714 2.412,-1.239 3.365,-1.581 l 3.264,5.508 c -1.36,0.545 -2.516,1.412 -3.467,2.602 -0.953,1.19 -1.497,2.465 -1.633,3.824 1.359,0 2.602,0.597 3.723,1.786 1.123,1.19 1.684,2.771 1.684,4.742 z"
       id="path19"
       style="fill:#6f42c1" /></g></svg>